<svg xmlns="http://www.w3.org/2000/svg" width="82.061" height="105.541" viewBox="0 0 82.061 105.541">
  <g id="_Group_" data-name=" Group " transform="translate(-21.999 -38)">
    <path id="_Compound_Path_" data-name=" Compound Path " d="M92.048,38H34.064A12.108,12.108,0,0,0,22,50.132v64.329a2.4,2.4,0,0,0,.664,1.686L48.5,142.792a2.413,2.413,0,0,0,1.727.749H92.048a12.064,12.064,0,0,0,12.012-12.132V50.132A12.064,12.064,0,0,0,92.048,38ZM47.9,135.123,30.1,116.914H45.39A2.475,2.475,0,0,1,47.9,119.3Zm51.318-3.714a7.217,7.217,0,0,1-7.143,7.291H52.742V119.3a7.321,7.321,0,0,0-7.352-7.23H26.841V50.132a7.262,7.262,0,0,1,7.223-7.291H92.048A7.217,7.217,0,0,1,99.219,50.1v81.306Z"/>
    <path id="_Path_" data-name=" Path " d="M138.049,168H92.008a2.421,2.421,0,0,0,0,4.841h46.041a2.421,2.421,0,1,0,0-4.841Z" transform="translate(-51.227 -98.531)"/>
    <path id="_Path_2" data-name=" Path 2" d="M138.049,228H92.008a2.421,2.421,0,0,0,0,4.841h46.041a2.421,2.421,0,1,0,0-4.841Z" transform="translate(-51.227 -144.007)"/>
    <path id="_Path_3" data-name=" Path 3" d="M138.049,288H92.008a2.421,2.421,0,0,0,0,4.841h46.041a2.421,2.421,0,1,0,0-4.841Z" transform="translate(-51.227 -189.483)"/>
    <path id="_Path_4" data-name=" Path 4" d="M92.008,116.841h21.257a2.421,2.421,0,1,0,0-4.841H92.008a2.421,2.421,0,0,0,0,4.841Z" transform="translate(-51.227 -56.087)"/>
  </g>
</svg>
