<svg xmlns="http://www.w3.org/2000/svg" width="101.753" height="101.46" viewBox="0 0 101.753 101.46">
  <g id="Expanded" transform="translate(0 -0.138)">
    <path id="Path_158605" data-name="Path 158605" d="M93.273,90.554H8.479A8.488,8.488,0,0,1,0,82.075v-63.6A8.488,8.488,0,0,1,8.479,10h42.4a2.12,2.12,0,1,1,0,4.24H8.479a4.244,4.244,0,0,0-4.24,4.24v63.6a4.244,4.244,0,0,0,4.24,4.24H93.273a4.244,4.244,0,0,0,4.24-4.24v-63.6a4.244,4.244,0,0,0-4.24-4.24,2.12,2.12,0,1,1,0-4.24,8.488,8.488,0,0,1,8.479,8.479v63.6A8.488,8.488,0,0,1,93.273,90.554Z" transform="translate(0 11.044)"/>
    <path id="Path_158606" data-name="Path 158606" d="M82.075,77.6H10V14H31.2a2.12,2.12,0,0,1,0,4.24H14.24V73.356h63.6V18.24H73.6a2.12,2.12,0,1,1,0-4.24h8.479Z" transform="translate(11.199 15.523)"/>
    <path id="Path_158607" data-name="Path 158607" d="M16.959,71.116H0V16H16.959ZM4.24,66.876h8.479V20.24H4.24Z" transform="translate(0 17.763)"/>
    <path id="Path_158608" data-name="Path 158608" d="M17.44,58.269,23.034,40.68,61.175,2.542a8.68,8.68,0,0,1,11.992,0,8.486,8.486,0,0,1,0,11.99L35.028,52.672l-17.588,5.6Zm9.323-15.32-2.8,8.793,8.793-2.8L70.169,11.536a4.243,4.243,0,0,0,0-5.995,4.341,4.341,0,0,0-6,0L26.763,42.948Z" transform="translate(19.53)"/>
    <path id="Path_158609" data-name="Path 158609" d="M1,24H13.719v4.24H1Z" transform="translate(1.12 26.722)"/>
    <path id="Path_158610" data-name="Path 158610" d="M1,32H13.719v4.24H1Z" transform="translate(1.12 35.681)"/>
    <path id="Path_158611" data-name="Path 158611" d="M47.477,15.627a2.113,2.113,0,0,1-1.5-.621L36.984,6.011a2.12,2.12,0,0,1,3-3l8.995,8.995a2.118,2.118,0,0,1-1.5,3.619Z" transform="translate(40.721 2.525)"/>
    <path id="Path_158612" data-name="Path 158612" d="M41.821,21.284a2.113,2.113,0,0,1-1.5-.621l-8.995-8.995a2.12,2.12,0,1,1,3-3l8.995,8.995a2.118,2.118,0,0,1-1.5,3.619Z" transform="translate(34.387 8.86)"/>
    <path id="Path_158613" data-name="Path 158613" d="M31.073,32.032a2.113,2.113,0,0,1-1.5-.621L20.58,22.416a2.12,2.12,0,0,1,3-3l8.995,8.995a2.118,2.118,0,0,1-1.5,3.619Z" transform="translate(22.351 20.897)"/>
    <path id="Path_158614" data-name="Path 158614" d="M18.121,33.456a2.118,2.118,0,0,1-1.5-3.619l4.2-4.2a2.12,2.12,0,1,1,3,3l-4.2,4.2a2.113,2.113,0,0,1-1.5.621Z" transform="translate(17.916 27.865)"/>
  </g>
</svg>
