<svg xmlns="http://www.w3.org/2000/svg" width="116" height="116" viewBox="0 0 116 116">
  <g id="Group_138407" data-name="Group 138407" transform="translate(-3 -3)">
    <path id="Path_158615" data-name="Path 158615" d="M15.644,26H10.462a1.813,1.813,0,0,0,0,3.625h5.18a1.813,1.813,0,0,0,0-3.625Zm12.428,1.813a1.813,1.813,0,0,0,1.813,1.813h5.18a1.813,1.813,0,0,0,0-3.625h-5.18A1.813,1.813,0,0,0,28.073,27.813Z" transform="translate(4.591 18.688)"/>
    <path id="Path_158616" data-name="Path 158616" d="M115.375,3H39.25a3.629,3.629,0,0,0-3.625,3.625v29h-29A3.629,3.629,0,0,0,3,39.25v76.125A3.629,3.629,0,0,0,6.625,119H82.75a3.629,3.629,0,0,0,3.625-3.625v-29h29A3.629,3.629,0,0,0,119,82.75V6.625A3.629,3.629,0,0,0,115.375,3ZM82.75,115.375H6.625v-58H82.75Zm0-61.625H6.625V39.25h30.82l45.305-.005Zm32.625,29h-29V39.25a3.629,3.629,0,0,0-3.625-3.625H39.25V24.75h76.125Zm0-61.625H39.25V6.625h76.125Z"/>
    <path id="Path_158617" data-name="Path 158617" d="M40.367,11.625h5.18a1.813,1.813,0,0,0,0-3.625H40.365a1.813,1.813,0,0,0,0,3.625Zm19.421,0h5.18a1.813,1.813,0,0,0,0-3.625h-5.18a1.813,1.813,0,0,0,0,3.625ZM21.593,94.469a1.812,1.812,0,0,0,2.563-2.563l-7.781-7.781,7.781-7.781a1.812,1.812,0,1,0-2.563-2.563l-9.062,9.063a1.813,1.813,0,0,0,0,2.563l9.063,9.063Zm29,0a1.807,1.807,0,0,0,2.563,0l9.062-9.062a1.813,1.813,0,0,0,0-2.563l-9.062-9.062a1.812,1.812,0,1,0-2.563,2.563l7.781,7.781-7.781,7.781A1.813,1.813,0,0,0,50.593,94.469Zm-22.116,9.585a1.811,1.811,0,0,0,2.394-.912l16.312-36.4a1.812,1.812,0,1,0-3.306-1.483l-16.312,36.4a1.811,1.811,0,0,0,.912,2.394Z" transform="translate(7.313 4.063)"/>
  </g>
</svg>
