<svg xmlns="http://www.w3.org/2000/svg" width="120" height="114.31" viewBox="0 0 120 114.31">
  <g id="Group_138408" data-name="Group 138408" transform="translate(-2.996 -4.372)">
    <path id="Path_158618" data-name="Path 158618" d="M30.428,9.014a34.962,34.962,0,0,1,5.91-.5,34.457,34.457,0,0,1,24.525,10.16,2.069,2.069,0,1,0,2.927-2.925A38.842,38.842,0,0,0,29.719,4.939a2.069,2.069,0,1,0,.7,4.076Z" transform="translate(26.66 0)"/>
    <path id="Path_158619" data-name="Path 158619" d="M121.661,67.9a38.855,38.855,0,0,0-19.936-24.548c.035-.685.1-1.367.1-2.069a38.646,38.646,0,0,0-6.345-21.258A2.07,2.07,0,1,0,92.018,22.3a34.523,34.523,0,0,1,5.658,19c0,.093-.012.184-.014.279A38.6,38.6,0,0,0,63,45.4a38.669,38.669,0,0,0-3.645-2.11,2.07,2.07,0,1,0-1.862,3.7q.981.492,1.922,1.051a39.221,39.221,0,0,0-13.53,23.408,34.814,34.814,0,0,1-7.412-5.617,34.4,34.4,0,0,1-9.82-19.922,34.924,34.924,0,0,1,22.162-1.448,2.069,2.069,0,0,0,1.072-4,39.058,39.058,0,0,0-23.557,1.154c0-.1-.017-.207-.017-.306A34.736,34.736,0,0,1,47.824,10.088a2.07,2.07,0,0,0-1.808-3.725A38.874,38.874,0,0,0,24.174,41.292c0,.693.066,1.376.1,2.069a38.414,38.414,0,0,0-7.3,4.758A2.069,2.069,0,1,0,19.625,51.3a34.01,34.01,0,0,1,5.126-3.517,38.522,38.522,0,0,0,10.793,20.96,38.942,38.942,0,0,0,9.843,7.137,37.254,37.254,0,0,0,0,4.212,2.1,2.1,0,0,0,2.18,1.949,2.069,2.069,0,0,0,1.949-2.18q-.052-.972-.052-1.938c0-.087.014-.174.014-.261a38.454,38.454,0,0,0,27.043,0c0,.089.01.178.01.267A34.726,34.726,0,0,1,63,105.419a34.755,34.755,0,0,1-12.344-18.49A2.069,2.069,0,1,0,46.659,88,38.861,38.861,0,0,0,59.4,107.823,34.682,34.682,0,0,1,13.1,58.5,2.069,2.069,0,1,0,9.67,56.185,38.82,38.82,0,0,0,63,110.479a38.8,38.8,0,0,0,7.747,3.906,2.069,2.069,0,1,0,1.438-3.873,34.7,34.7,0,0,1-5.625-2.689A38.764,38.764,0,0,0,80.669,77.917c0-.676-.039-1.357-.074-2.038a38.952,38.952,0,0,0,9.858-7.143,38.257,38.257,0,0,0,10.795-20.952,34.685,34.685,0,0,1-19.56,64.768,2.069,2.069,0,1,0-.294,4.127q1.363.1,2.741.1A38.8,38.8,0,0,0,121.661,67.9ZM63,75.979A34.629,34.629,0,0,1,49.8,73.387,35.009,35.009,0,0,1,62.63,50.74c.124-.1.257-.176.381-.271A34.755,34.755,0,0,1,76.164,72.892c.025.159.033.323.054.484A34.645,34.645,0,0,1,63,75.979ZM95.256,54.067a34.391,34.391,0,0,1-7.731,11.761A34.8,34.8,0,0,1,80.1,71.455a38.874,38.874,0,0,0-13.49-23.377,34.382,34.382,0,0,1,30.725-2.2,34.494,34.494,0,0,1-2.083,8.186Z" transform="translate(0 1.906)"/>
  </g>
</svg>
