<svg xmlns="http://www.w3.org/2000/svg" width="137.288" height="137.303" viewBox="0 0 137.288 137.303">
  <g id="Group_138409" data-name="Group 138409" transform="translate(85.675 -19.537) rotate(45)">
    <path id="Path_158620" data-name="Path 158620" d="M18.3,67.219a2.081,2.081,0,0,1-.793-.15,2.138,2.138,0,0,1-1.286-1.714c-1.886-19.8,6.792-32.933,12.128-39A2.08,2.08,0,1,1,31.476,29.1,46.348,46.348,0,0,0,20.142,61.2,77.616,77.616,0,0,1,31,54.92a2.076,2.076,0,0,1,1.778,3.75,66.926,66.926,0,0,0-13.156,8.078,2.059,2.059,0,0,1-1.328.471Zm64.066,0a2.139,2.139,0,0,1-1.35-.493,67.764,67.764,0,0,0-13.156-8.078,2.075,2.075,0,0,1,1.778-3.75A76.365,76.365,0,0,1,80.5,61.177,46.559,46.559,0,0,0,69.166,29.058a2.08,2.08,0,1,1,3.128-2.743c5.335,6.064,14.013,19.22,12.128,39.018a2.005,2.005,0,0,1-1.286,1.714A1.569,1.569,0,0,1,82.365,67.219ZM50.332,107.866a2.07,2.07,0,0,1-1.65-.814c-.364-.493-9.149-12.213-9.706-27.148a2.117,2.117,0,0,1,.579-1.521,2.056,2.056,0,0,1,1.5-.643H59.631A2.091,2.091,0,0,1,61.71,79.9c-.557,14.934-9.342,26.655-9.728,27.148A2.1,2.1,0,0,1,50.332,107.866ZM43.261,81.9a49.1,49.1,0,0,0,7.071,20.12A49.1,49.1,0,0,0,57.4,81.9H43.261Z" transform="translate(0 29.255)"/>
    <path id="Path_158621" data-name="Path 158621" d="M61.275,93.6H26.95a2.089,2.089,0,0,1-2.014-1.543A107.862,107.862,0,0,1,21.4,64.676C21.4,19.7,41.863,1.274,42.72.524a2.086,2.086,0,0,1,2.743,0c.878.771,21.32,19.2,21.32,64.152A106.909,106.909,0,0,1,63.247,92.06,2,2,0,0,1,61.275,93.6Zm-32.7-4.157h31.09a103.394,103.394,0,0,0,3-24.769c0-36.361-14.035-54.681-18.534-59.631-4.5,4.971-18.556,23.4-18.556,59.631a103.394,103.394,0,0,0,3,24.769Z" transform="translate(6.219 0)"/>
    <path id="Path_158622" data-name="Path 158622" d="M54.983,93.886H26.442a2.07,2.07,0,0,1-1.65-.814,2.123,2.123,0,0,1-.343-1.821l2.593-9.3a2.069,2.069,0,0,1,3.985,1.114l-1.864,6.664H52.24l-1.864-6.664a2.069,2.069,0,0,1,3.985-1.114l2.593,9.3a2.138,2.138,0,0,1-.343,1.821,2.06,2.06,0,0,1-1.628.814ZM40.713,44.347A11.313,11.313,0,1,1,52.026,33.034,11.33,11.33,0,0,1,40.713,44.347Zm0-18.448a7.157,7.157,0,1,0,7.157,7.157A7.169,7.169,0,0,0,40.713,25.9ZM52.155,12.057H29.271a2.078,2.078,0,0,1,0-4.157H52.155a2.078,2.078,0,0,1,0,4.157Z" transform="translate(9.619 9.016)"/>
  </g>
</svg>
