<svg xmlns="http://www.w3.org/2000/svg" width="44.652" height="44.652" viewBox="0 0 44.652 44.652">
  <path id="Path_158604" data-name="Path 158604" d="M36.248,9.725h0A2.679,2.679,0,1,0,38.928,12.4,2.679,2.679,0,0,0,36.248,9.725Zm10.27,5.4A16.946,16.946,0,0,0,45.491,9.7,11.029,11.029,0,0,0,42.9,5.751,10.493,10.493,0,0,0,38.95,3.183a16.3,16.3,0,0,0-5.425-1.049C31.158,2,30.4,2,24.326,2s-6.832,0-9.2.134A16.3,16.3,0,0,0,9.7,3.183,10.672,10.672,0,0,0,5.751,5.751,10.493,10.493,0,0,0,3.183,9.7a16.3,16.3,0,0,0-1.049,5.425C2,17.494,2,18.253,2,24.326s0,6.832.134,9.2A16.3,16.3,0,0,0,3.183,38.95,10.493,10.493,0,0,0,5.751,42.9,10.672,10.672,0,0,0,9.7,45.469a16.3,16.3,0,0,0,5.425,1.049c2.367.134,3.126.134,9.2.134s6.832,0,9.2-.134a16.3,16.3,0,0,0,5.425-1.049A10.493,10.493,0,0,0,42.9,42.9a10.828,10.828,0,0,0,2.59-3.952,16.946,16.946,0,0,0,1.027-5.425c0-2.367.134-3.126.134-9.2S46.652,17.494,46.518,15.128ZM42.5,33.257a12.525,12.525,0,0,1-.759,4.153,6.832,6.832,0,0,1-1.674,2.568A7.122,7.122,0,0,1,37.5,41.651a12.525,12.525,0,0,1-4.153.759c-2.233.112-3.059.134-8.93.134s-6.7,0-8.93-.134a12.793,12.793,0,0,1-4.331-.67A7.3,7.3,0,0,1,8.7,40.066,6.7,6.7,0,0,1,7.046,37.5a12.369,12.369,0,0,1-.893-4.242c0-2.233-.134-3.059-.134-8.93s0-6.7.134-8.93a12.369,12.369,0,0,1,.781-4.242A6.7,6.7,0,0,1,8.7,8.7a7.01,7.01,0,0,1,2.456-1.786A12.793,12.793,0,0,1,15.4,6.153c2.233,0,3.059-.134,8.93-.134s6.7,0,8.93.134a12.525,12.525,0,0,1,4.153.759A6.832,6.832,0,0,1,40.066,8.7a6.832,6.832,0,0,1,1.674,2.456A12.525,12.525,0,0,1,42.5,15.4c.112,2.233.134,3.059.134,8.93S42.611,31.024,42.5,33.257ZM24.326,12.873a11.431,11.431,0,1,0,8.12,3.34,11.453,11.453,0,0,0-8.12-3.34Zm0,18.888a7.435,7.435,0,1,1,7.435-7.435,7.435,7.435,0,0,1-7.435,7.435Z" transform="translate(-2 -2)" fill="#fff"/>
</svg>
