<svg xmlns="http://www.w3.org/2000/svg" width="439.928" height="178.346" viewBox="0 0 439.928 178.346">
  <g id="Group_1171278741" data-name="Group 1171278741" transform="translate(-0.006)">
    <path id="Path_113145" data-name="Path 113145" d="M266.994,39.576s5.04,3.36,20.858,1.68c15.792-1.68,29.44-10.287,30.939-22.539C320.471,4.941,308.712-2.142,298.269.572,287.852,3.261,285.5,13,283.821,20.759,282.114,28.487,277.075,38.9,266.994,39.576Z" transform="translate(110.923 0)" fill="#005aa8"/>
    <path id="Path_113146" data-name="Path 113146" d="M156.714,126.514c-18.326-25.821-20.47-60.4-3.723-86.484,9-14.035,27.4-28.2,52.056-31.921C272.147-2,293.5,42.589,332.267,46.879,363.852,50.394,379.541,28.4,379.541,28.4s-1.111,109.411-78.626,135.18C230.042,187.178,176.539,154.43,156.714,126.514Z" transform="translate(58.83 2.751)" fill="#2ba14b"/>
    <path id="Path_113147" data-name="Path 113147" d="M156.714,126.477c-18.326-25.821-20.47-60.4-3.723-86.484,9-14.035,27.4-28.2,52.056-31.921,67.1-10.106,70.045,39.21,122.542,45.026,36.7,4.058,51.952-24.736,51.952-24.736s-3.152,110.47-80.668,136.266C228,188.225,176.539,154.391,156.714,126.477Z" transform="translate(58.83 2.788)" fill="#f1b401"/>
    <path id="Path_113148" data-name="Path 113148" d="M156.714,124.943c-18.326-25.821-20.47-60.4-3.723-86.484,0,0,10.313-16.9,29.88-25.227,53.838-16.1,94.548,41.64,133.216,43.63,49.936,2.559,63.48-30.008,63.48-30.008s18.765,93.463-74.879,135.9C235.341,194.16,176.539,152.857,156.714,124.943Z" transform="translate(58.83 4.321)" fill="#005aa8"/>
    <path id="Path_113149" data-name="Path 113149" d="M172.334,47.792a26.817,26.817,0,0,1,15.457,5.04,21.414,21.414,0,0,1,9.175,12.975H183.629a12.612,12.612,0,0,0-11.373-6.358,13.842,13.842,0,0,0-10.442,4.136,14.314,14.314,0,0,0-3.98,10.365,14.843,14.843,0,0,0,4.031,10.6c2.688,2.843,6.307,4.265,10.83,4.265a12.817,12.817,0,0,0,6.229-1.577,12.65,12.65,0,0,0,4.7-4.42h13.44a23.49,23.49,0,0,1-9.305,12.691,26.368,26.368,0,0,1-41.82-21.66A24.785,24.785,0,0,1,153.7,55.339,25.691,25.691,0,0,1,172.334,47.792Z" transform="translate(60.631 19.856)" fill="#fff" fill-rule="evenodd"/>
    <path id="Path_113150" data-name="Path 113150" d="M199.84,37.183H187.925v66.168H199.84Z" transform="translate(78.073 15.448)" fill="#fff"/>
    <path id="Path_113151" data-name="Path 113151" d="M227.87,59.449a15.063,15.063,0,0,0-8.581,2.636,12.661,12.661,0,0,0-5.247,6.849h27.4a12.417,12.417,0,0,0-4.988-6.9A14.632,14.632,0,0,0,227.87,59.449Zm-.051-11.657a24.231,24.231,0,0,1,17.989,7.7,25.266,25.266,0,0,1,7.522,18.274,18.157,18.157,0,0,1-.232,3.1c-.156.853-.285,1.758-.415,2.636H214.2a12.769,12.769,0,0,0,5.015,6.772,13.956,13.956,0,0,0,8.142,2.559,18.4,18.4,0,0,0,6.126-1.06,12.606,12.606,0,0,0,4.885-3.05h13.157c-1.423,4.42-4.471,8.168-9.124,11.192a26.307,26.307,0,0,1-14.681,4.549,25.324,25.324,0,0,1-18.482-7.547,24.894,24.894,0,0,1-7.651-18.429,25.735,25.735,0,0,1,7.754-18.972A25.255,25.255,0,0,1,227.82,47.792Z" transform="translate(83.747 19.856)" fill="#fff" fill-rule="evenodd"/>
    <path id="Path_113152" data-name="Path 113152" d="M268.846,59.449a14.155,14.155,0,0,0-10.779,4.316,15.143,15.143,0,0,0-4.084,10.8,13.55,13.55,0,0,0,4.265,10.106,14.465,14.465,0,0,0,10.52,4.136,13.526,13.526,0,0,0,10.469-4.265,14.869,14.869,0,0,0,3.928-10.494,14.661,14.661,0,0,0-3.928-10.416A13.633,13.633,0,0,0,268.846,59.449Zm-2.068-11.657a21.208,21.208,0,0,1,9.615,2.249,17.429,17.429,0,0,1,7.108,6.333V49.291h10.933v49.6H283.5v-6.8a20.174,20.174,0,0,1-6.358,5.4,21.564,21.564,0,0,1-10.831,2.921q-10.739,0-17.5-7.5t-6.746-18.739A26.8,26.8,0,0,1,249.1,55.494,22.952,22.952,0,0,1,266.778,47.792Z" transform="translate(100.567 19.856)" fill="#fff" fill-rule="evenodd"/>
    <path id="Path_113153" data-name="Path 113153" d="M285.326,98.918v-49.6h10.831v4.652a13.86,13.86,0,0,1,4.781-4.807,14.839,14.839,0,0,1,6.927-1.37V59.346a11.632,11.632,0,0,0-7.264,2.326,7.569,7.569,0,0,0-2.817,4.187,27.8,27.8,0,0,0-.594,6.333v26.7H285.326Z" transform="translate(118.539 19.856)" fill="#fff" fill-rule="evenodd"/>
    <path id="Path_113154" data-name="Path 113154" d="M.006,37.182H12.283V91.435H32.5v11.89H.006Z" transform="translate(0 15.448)" fill="#005aa8" fill-rule="evenodd"/>
    <path id="Path_113155" data-name="Path 113155" d="M26.958,53.724H38.873v49.6H26.958Zm0-16.542H38.873v10.83H26.958Z" transform="translate(11.197 15.448)" fill="#005aa8" fill-rule="evenodd"/>
    <path id="Path_113156" data-name="Path 113156" d="M91.838,48.867h11.915V75.386a16.353,16.353,0,0,0,2.456,9.331c1.628,2.4,4.161,3.618,7.573,3.618q5.467,0,8.065-4.11c1.5-2.378,2.248-5.661,2.248-9.822V48.867H136.01v49.6H125.077V93.014a15.407,15.407,0,0,1-5.091,5.221,14.781,14.781,0,0,1-7.7,1.758,21.307,21.307,0,0,1-10.339-2.585,20.278,20.278,0,0,1-7.832-7.677,14.928,14.928,0,0,1-1.706-4.6,30.115,30.115,0,0,1-.543-6.022V48.867Z" transform="translate(38.153 20.302)" fill="#005aa8" fill-rule="evenodd"/>
    <path id="Path_113157" data-name="Path 113157" d="M129.783,53.724H141.7v49.6H129.783Zm0-16.542H141.7v10.83H129.783Z" transform="translate(53.917 15.448)" fill="#005aa8" fill-rule="evenodd"/>
    <path id="Path_113158" data-name="Path 113158" d="M74.491,78.47a34.029,34.029,0,0,1,10.675,6.746,33.658,33.658,0,0,0,7.625-21.427,34.106,34.106,0,0,0-1.964-11.424,1.374,1.374,0,0,0-2.662.517c0,.258.026.491.026.724A29.458,29.458,0,0,1,74.491,78.47Z" transform="translate(30.945 21.38)" fill="#005aa8" fill-rule="evenodd"/>
    <path id="Path_113159" data-name="Path 113159" d="M89.347,81.683a33.985,33.985,0,0,0-15.9-7.418,29.6,29.6,0,0,1-5.893.594,29.234,29.234,0,0,1-14.268-3.7c.207.414.439.827.672,1.241.336.569.672,1.137,1.034,1.706.362.543.749,1.086,1.137,1.628A34.023,34.023,0,0,0,75.57,88.61a34.454,34.454,0,0,0,7.883.931,18.049,18.049,0,0,1,12.588,5.092,1.34,1.34,0,0,0,2.171-1.5,34.4,34.4,0,0,0-3.334-5.557A33.228,33.228,0,0,0,89.347,81.683Z" transform="translate(22.137 29.565)" fill="#0071ba" fill-rule="evenodd"/>
    <path id="Path_113160" data-name="Path 113160" d="M61.869,83.717c-.388-.543-.775-1.06-1.137-1.628-.362-.543-.7-1.111-1.034-1.706-.233-.413-.465-.827-.672-1.241A29.458,29.458,0,0,1,43.853,53.4v-.052a1.369,1.369,0,0,0-2.662-.465,33.991,33.991,0,0,0,9.1,35.488c.439.414.879.8,1.344,1.189a33.834,33.834,0,0,0,21.789,7.935,33.073,33.073,0,0,0,7.883-.931A33.858,33.858,0,0,1,61.869,83.717Z" transform="translate(16.402 21.586)" fill="#005aa8" fill-rule="evenodd"/>
    <path id="Path_113161" data-name="Path 113161" d="M48.524,66.807a21.04,21.04,0,0,0,42.079,0c0-11.605-22.022-47.119-22.022-47.119S48.524,55.2,48.524,66.807Z" transform="translate(20.157 8.179)" fill="#0071ba" fill-rule="evenodd"/>
    <path id="Path_113162" data-name="Path 113162" d="M85.327,66.807a21.041,21.041,0,0,1-21.04,21.04c-11.605,0,12.924-2.636,11.76-23.909-1.422-26.209-12.768-44.25-12.768-44.25S85.327,55.2,85.327,66.807Z" transform="translate(25.408 8.179)" fill="#005aa8" fill-rule="evenodd"/>
    <path id="Path_113168" data-name="Path 113168" d="M177.966,90.4v13.647h-.9l-7.754-8.3v8.038h-2.766V90.137h.9l7.781,8.219V90.369h2.739Z" transform="translate(69.189 37.448)" fill="#fff"/>
    <path id="Path_113169" data-name="Path 113169" d="M184.775,102.044H179.3l-.75,1.758H175.6l6-13.647h.9l5.97,13.647h-2.946ZM182.009,95.3l-1.757,4.5h3.54Z" transform="translate(72.952 37.455)" fill="#fff"/>
    <path id="Path_113170" data-name="Path 113170" d="M195.055,92.8h-4.317v10.933H188V92.8h-4.29V90.319h11.348Z" transform="translate(76.32 37.524)" fill="#fff"/>
    <path id="Path_113171" data-name="Path 113171" d="M204.009,98.176a5.688,5.688,0,0,1-1.6,4.213,6.077,6.077,0,0,1-8.167,0,5.688,5.688,0,0,1-1.6-4.213V90.319h2.739v8.064a2.807,2.807,0,0,0,2.947,3.05,2.908,2.908,0,0,0,2.146-.8,3,3,0,0,0,.8-2.249V90.319h2.739Z" transform="translate(80.03 37.524)" fill="#fff"/>
    <path id="Path_113172" data-name="Path 113172" d="M210.7,103.733,207.235,99h-2.016v4.73h-2.74V90.319h5.04a5.059,5.059,0,0,1,3.489,1.189,3.96,3.96,0,0,1,1.345,3.127,4.232,4.232,0,0,1-.62,2.275A4.332,4.332,0,0,1,210,98.435l3.8,5.273h-3.1Zm-5.479-7.16h2.3a2.106,2.106,0,0,0,1.5-.517,1.888,1.888,0,0,0,.544-1.4,1.79,1.79,0,0,0-.544-1.37,1.974,1.974,0,0,0-1.473-.517h-2.3v3.8Z" transform="translate(84.119 37.524)" fill="#fff"/>
    <path id="Path_113173" data-name="Path 113173" d="M219.653,102.044h-5.479l-.75,1.758h-2.947l6-13.647h.9l5.97,13.647H220.4Zm-2.74-6.746-1.758,4.5H218.7Z" transform="translate(87.442 37.455)" fill="#fff"/>
    <path id="Path_113174" data-name="Path 113174" d="M223.315,101.252h5.868v2.481h-8.607V90.319h2.739Z" transform="translate(91.638 37.524)" fill="#fff"/>
    <path id="Path_113175" data-name="Path 113175" d="M230.546,101.252h5.867v2.481h-8.607V90.319h2.74Z" transform="translate(94.642 37.524)" fill="#fff"/>
    <path id="Path_113176" data-name="Path 113176" d="M240.194,98.461v5.273h-2.74V98.461l-4.626-8.142h3.049l2.947,5.325,2.972-5.325h3.023Z" transform="translate(96.728 37.524)" fill="#fff"/>
    <path id="Path_113177" data-name="Path 113177" d="M254.005,91.516a4.309,4.309,0,0,1,0,6.255,5.074,5.074,0,0,1-3.489,1.215h-2.275v4.73H245.5V90.3h5.04A5.266,5.266,0,0,1,254.005,91.516Zm-5.764,1.241v3.851h2.3a2.01,2.01,0,0,0,1.5-.543,1.908,1.908,0,0,0,.544-1.422,1.79,1.79,0,0,0-.544-1.37,1.975,1.975,0,0,0-1.473-.517Z" transform="translate(101.993 37.517)" fill="#fff"/>
    <path id="Path_113178" data-name="Path 113178" d="M265.017,98.176a5.688,5.688,0,0,1-1.6,4.213,6.077,6.077,0,0,1-8.167,0,5.688,5.688,0,0,1-1.6-4.213V90.319h2.739v8.064a2.807,2.807,0,0,0,2.947,3.05,2.908,2.908,0,0,0,2.146-.8,3,3,0,0,0,.8-2.249V90.319h2.739Z" transform="translate(105.377 37.524)" fill="#fff"/>
    <path id="Path_113179" data-name="Path 113179" d="M271.707,103.733,268.243,99h-2.016v4.73h-2.74V90.319h5.04a5.059,5.059,0,0,1,3.489,1.189,3.96,3.96,0,0,1,1.345,3.127,4.221,4.221,0,0,1-.621,2.275,4.318,4.318,0,0,1-1.731,1.525l3.8,5.273h-3.1Zm-5.479-7.16h2.3a2.111,2.111,0,0,0,1.5-.517,1.888,1.888,0,0,0,.544-1.4,1.789,1.789,0,0,0-.544-1.37,1.978,1.978,0,0,0-1.473-.517h-2.3v3.8Z" transform="translate(109.465 37.524)" fill="#fff"/>
    <path id="Path_113180" data-name="Path 113180" d="M281.4,92.809h-6.28v2.714h4.6v2.326h-4.6v3.386h6.513v2.481h-9.253V90.3H281.4Z" transform="translate(113.161 37.517)" fill="#fff"/>
    <path id="Path_113181" data-name="Path 113181" d="M274.809,40.708a72.55,72.55,0,0,0,9.77-.439c15.792-1.68,29.44-10.287,30.939-22.539.854-6.979-1.731-12.226-5.842-15.353,5.919,5.428,4.471,23.443-11.114,30.81a96.692,96.692,0,0,1-18.092,6.307A16.5,16.5,0,0,1,274.809,40.708Z" transform="translate(114.169 0.988)" fill="#1bb3ef"/>
    <path id="Path_113182" data-name="Path 113182" d="M274.536,34.244s13.1,6.307,23.572,2.843,11.605-12.743,6.152-17.318-12.639.439-15.25,3.955C286.4,27.213,279.834,34.606,274.536,34.244Z" transform="translate(114.056 7.452)" fill="#e33e2b"/>
  </g>
</svg>
